<?xml version="1.0" standalone="no"?>
<!DOCTYPE svg PUBLIC "-//W3C//DTD SVG 20010904//EN"
 "http://www.w3.org/TR/2001/REC-SVG-20010904/DTD/svg10.dtd">
<svg version="1.0" xmlns="http://www.w3.org/2000/svg"
 width="100%" height="100%" viewBox="0 0 1183.000000 1183.000000"
 preserveAspectRatio="xMidYMid meet">
<metadata>
Created by potrace 1.16, written by Peter Selinger 2001-2019
</metadata>
<g transform="translate(0.000000,1183.000000) scale(0.100000,-0.100000)"
fill="#000000" stroke="none">
<path d="M0 11817 c0 -6 1301 -1313 2890 -2902 1774 -1774 2890 -2897 2890
-2909 0 -14 -5 -17 -25 -12 -64 16 -124 -47 -111 -117 9 -49 39 -72 92 -72
l44 0 -2890 -2890 c-1590 -1590 -2890 -2896 -2890 -2903 0 -8 7 -12 15 -10 8
2 1330 1318 2938 2926 l2922 2922 22 -22 c15 -14 36 -22 64 -24 41 -2 56 -16
2943 -2903 1595 -1595 2907 -2901 2914 -2901 6 0 12 3 12 7 0 5 -1305 1313
-2901 2909 l-2901 2901 16 31 c9 17 16 40 16 52 0 28 -28 80 -43 80 -6 0 1300
1312 2903 2915 2331 2331 2912 2917 2902 2927 -10 10 -597 -572 -2930 -2905
-2043 -2043 -2923 -2917 -2938 -2917 -12 0 -32 -9 -46 -20 l-25 -19 -31 32
c-24 25 -32 42 -32 70 0 36 -1 37 -38 37 -36 0 -107 70 -2902 2865 -1576 1576
-2868 2865 -2872 2865 -5 0 -8 -6 -8 -13z m5768 -5849 c7 -7 12 -37 12 -68 0
-60 -11 -80 -46 -80 -26 0 -40 15 -49 53 -18 69 41 137 83 95z m102 -53 c0
-12 -11 -32 -25 -45 l-25 -23 0 68 0 68 25 -23 c14 -13 25 -33 25 -45z m80 61
c0 -2 -8 -10 -17 -17 -16 -13 -17 -12 -4 4 13 16 21 21 21 13z m66 -62 c3 -22
0 -46 -5 -54 -9 -13 -16 -10 -43 17 l-32 33 29 30 c33 35 45 29 51 -26z m-52
-93 c-20 -4 -54 32 -54 57 0 11 11 5 36 -19 29 -28 32 -35 18 -38z"/>
<path d="M2610 6091 c0 -5 9 -11 20 -14 19 -5 20 -14 20 -126 0 -114 -1 -121
-20 -121 -11 0 -20 -5 -20 -10 0 -7 40 -10 113 -8 l112 3 2 55 3 55 -23 -45
c-21 -43 -24 -45 -70 -48 l-48 -3 3 123 c3 119 4 123 26 126 50 7 18 22 -48
22 -38 0 -70 -4 -70 -9z"/>
<path d="M7970 6091 c0 -5 7 -11 15 -15 10 -3 15 -19 15 -47 0 -39 -1 -41 -25
-35 -64 16 -124 -47 -111 -117 11 -57 36 -71 123 -72 52 0 78 4 80 13 3 6 -2
12 -11 12 -14 0 -16 19 -16 135 l0 135 -35 0 c-19 0 -35 -4 -35 -9z m18 -123
c7 -7 12 -37 12 -68 0 -60 -11 -80 -46 -80 -26 0 -40 15 -49 53 -18 69 41 137
83 95z"/>
<path d="M8300 6091 c0 -5 7 -11 15 -15 12 -4 15 -28 15 -126 0 -100 -2 -120
-15 -120 -8 0 -15 -4 -15 -10 0 -5 23 -10 50 -10 28 0 50 5 50 10 0 6 -7 10
-15 10 -13 0 -15 22 -15 135 l0 135 -35 0 c-19 0 -35 -4 -35 -9z"/>
<path d="M3943 6083 c-19 -7 -16 -40 4 -47 21 -8 36 6 31 30 -3 19 -16 25 -35
17z"/>
<path d="M6463 6083 c-19 -7 -16 -40 4 -47 21 -8 36 6 31 30 -3 19 -16 25 -35
17z"/>
<path d="M5384 6038 c-5 -19 -19 -37 -32 -43 -27 -12 -29 -25 -2 -25 18 0 20
-7 20 -69 0 -77 13 -101 55 -101 27 0 45 26 45 64 0 38 -18 32 -22 -6 -2 -21
-8 -33 -18 -33 -12 0 -16 16 -18 73 -3 71 -3 72 23 72 14 0 25 5 25 10 0 6
-11 10 -25 10 -22 0 -25 4 -25 40 0 48 -14 52 -26 8z"/>
<path d="M7304 6038 c-5 -19 -19 -37 -32 -43 -27 -12 -29 -25 -2 -25 18 0 20
-7 20 -69 0 -77 13 -101 55 -101 27 0 45 26 45 64 0 38 -18 32 -22 -6 -2 -21
-8 -33 -18 -33 -12 0 -16 16 -18 73 -3 71 -3 72 23 72 14 0 25 5 25 10 0 6
-11 10 -25 10 -22 0 -25 4 -25 40 0 48 -14 52 -26 8z"/>
<path d="M2899 5971 c-76 -76 3 -201 102 -161 72 30 77 140 8 176 -43 22 -77
17 -110 -15z m100 -4 c35 -43 18 -132 -27 -144 -51 -13 -84 81 -46 135 17 25
56 29 73 9z"/>
<path d="M3098 5993 c-22 -5 -24 -23 -3 -23 12 0 15 -14 15 -70 0 -56 -3 -70
-15 -70 -8 0 -15 -4 -15 -10 0 -5 25 -10 55 -10 30 0 55 5 55 10 0 6 -9 10
-20 10 -18 0 -20 7 -20 58 0 56 16 101 27 75 8 -21 43 -16 43 6 0 28 -37 37
-61 15 -17 -16 -19 -16 -19 -1 0 17 -9 19 -42 10z"/>
<path d="M3269 5971 c-58 -58 -28 -155 53 -168 30 -4 41 -1 62 20 26 26 34 47
17 47 -5 0 -16 -11 -25 -25 -9 -14 -25 -25 -36 -25 -26 0 -60 34 -60 60 0 18
7 20 59 20 33 0 62 4 65 9 9 14 -15 71 -34 81 -34 18 -71 11 -101 -19z m91
-10 c18 -34 11 -41 -35 -41 -49 0 -53 5 -29 38 19 27 50 29 64 3z"/>
<path d="M3453 5993 c-26 -5 -31 -23 -8 -23 12 0 15 -14 15 -70 0 -56 -3 -70
-15 -70 -8 0 -15 -4 -15 -10 0 -5 23 -10 50 -10 28 0 50 5 50 10 0 6 -7 10
-15 10 -12 0 -15 13 -15 58 0 47 4 63 21 78 35 31 53 9 57 -70 3 -61 1 -66
-18 -66 -11 0 -20 -4 -20 -10 0 -5 25 -10 55 -10 30 0 55 5 55 10 0 6 -10 10
-21 10 -20 0 -21 4 -17 61 5 64 24 93 58 87 22 -5 28 -148 5 -148 -8 0 -15 -4
-15 -10 0 -5 23 -10 50 -10 28 0 50 5 50 10 0 6 -7 10 -15 10 -12 0 -15 14
-15 65 0 52 -4 69 -20 85 -24 24 -48 25 -79 4 -15 -11 -25 -13 -30 -6 -10 17
-58 25 -80 12 -14 -7 -21 -7 -21 0 0 10 -7 11 -47 3z"/>
<path d="M3933 5993 c-26 -5 -31 -23 -8 -23 12 0 15 -14 15 -70 0 -56 -3 -70
-15 -70 -8 0 -15 -4 -15 -10 0 -5 23 -10 50 -10 28 0 50 5 50 10 0 6 -7 10
-15 10 -12 0 -15 16 -15 85 0 62 -3 85 -12 84 -7 -1 -23 -4 -35 -6z"/>
<path d="M4048 5993 c-22 -5 -24 -23 -3 -23 12 0 15 -19 15 -110 0 -91 -3
-110 -15 -110 -8 0 -15 -4 -15 -10 0 -5 23 -10 50 -10 28 0 50 5 50 10 0 6 -7
10 -15 10 -10 0 -15 10 -15 30 0 27 2 30 25 24 54 -13 115 38 115 96 0 61 -66
114 -115 92 -16 -7 -25 -8 -25 -2 0 10 -21 11 -52 3z m128 -34 c38 -42 13
-139 -36 -139 -29 0 -40 23 -40 82 0 44 4 59 18 67 25 15 37 13 58 -10z"/>
<path d="M4282 5984 c-24 -17 -29 -56 -9 -72 7 -6 31 -17 53 -24 31 -11 39
-18 39 -38 0 -20 -6 -26 -28 -28 -22 -3 -31 3 -45 27 -23 41 -32 39 -32 -6 l0
-38 48 -2 c56 -2 92 18 92 51 0 42 -11 55 -61 71 -36 12 -49 21 -47 33 2 12
14 17 38 17 29 0 36 -4 38 -22 5 -35 22 -27 22 10 0 33 -1 34 -43 35 -25 1
-52 -4 -65 -14z"/>
<path d="M4443 5993 c-26 -5 -31 -23 -8 -23 12 0 15 -14 15 -65 0 -52 4 -69
20 -85 22 -22 51 -26 81 -10 13 7 19 7 19 0 0 -11 30 -13 54 -4 23 9 20 24 -4
24 -18 0 -20 7 -20 86 0 85 0 86 -22 80 -13 -3 -29 -6 -35 -6 -20 0 -15 -17 7
-23 17 -4 20 -14 20 -54 0 -58 -22 -96 -53 -91 -20 3 -22 10 -25 91 -2 61 -6
87 -15 86 -7 -1 -22 -4 -34 -6z"/>
<path d="M4673 5993 c-26 -5 -31 -23 -8 -23 12 0 15 -14 15 -70 0 -56 -3 -70
-15 -70 -8 0 -15 -4 -15 -10 0 -5 23 -10 50 -10 28 0 50 5 50 10 0 6 -7 10
-15 10 -12 0 -15 13 -15 58 0 47 4 63 21 78 35 31 53 9 57 -70 3 -61 1 -66
-18 -66 -11 0 -20 -4 -20 -10 0 -5 25 -10 55 -10 30 0 55 5 55 10 0 6 -10 10
-21 10 -20 0 -21 4 -17 61 5 64 24 93 58 87 22 -5 28 -148 5 -148 -8 0 -15 -4
-15 -10 0 -5 23 -10 50 -10 28 0 50 5 50 10 0 6 -7 10 -15 10 -12 0 -15 14
-15 65 0 52 -4 69 -20 85 -24 24 -48 25 -79 4 -15 -11 -25 -13 -30 -6 -10 17
-58 25 -80 12 -14 -7 -21 -7 -21 0 0 10 -7 11 -47 3z"/>
<path d="M5172 5984 c-30 -21 -30 -57 1 -52 16 2 21 9 20 26 -2 17 2 22 22 22
23 0 45 -24 45 -49 0 -6 -12 -11 -27 -11 -16 0 -43 -9 -61 -20 -27 -16 -33
-26 -30 -47 4 -40 47 -61 89 -46 23 9 35 9 49 1 25 -16 50 6 49 41 l-1 26 -10
-29 c-15 -42 -28 -15 -28 61 0 52 -3 64 -22 77 -12 9 -34 16 -48 16 -14 0 -36
-7 -48 -16z m73 -140 c-19 -29 -58 -30 -63 -1 -5 23 23 55 52 59 27 4 33 -25
11 -58z"/>
<path d="M6103 5993 c-26 -5 -31 -23 -8 -23 12 0 15 -14 15 -70 0 -56 -3 -70
-15 -70 -8 0 -15 -4 -15 -10 0 -5 23 -10 50 -10 28 0 50 5 50 10 0 6 -7 10
-15 10 -12 0 -15 13 -15 58 0 47 4 63 21 78 35 31 53 9 57 -70 3 -61 1 -66
-18 -66 -11 0 -20 -4 -20 -10 0 -5 25 -10 55 -10 30 0 55 5 55 10 0 6 -10 10
-21 10 -20 0 -21 4 -17 61 5 64 24 93 58 87 22 -5 28 -148 5 -148 -8 0 -15 -4
-15 -10 0 -5 23 -10 50 -10 28 0 50 5 50 10 0 6 -7 10 -15 10 -12 0 -15 14
-15 65 0 52 -4 69 -20 85 -24 24 -48 25 -79 4 -15 -11 -25 -13 -30 -6 -10 17
-58 25 -80 12 -14 -7 -21 -7 -21 0 0 10 -7 11 -47 3z"/>
<path d="M6453 5993 c-26 -5 -31 -23 -8 -23 12 0 15 -14 15 -70 0 -56 -3 -70
-15 -70 -8 0 -15 -4 -15 -10 0 -5 23 -10 50 -10 28 0 50 5 50 10 0 6 -7 10
-15 10 -12 0 -15 16 -15 85 0 62 -3 85 -12 84 -7 -1 -23 -4 -35 -6z"/>
<path d="M6563 5993 c-26 -5 -31 -23 -8 -23 12 0 15 -14 15 -70 0 -56 -3 -70
-15 -70 -8 0 -15 -4 -15 -10 0 -5 23 -10 50 -10 28 0 50 5 50 10 0 6 -7 10
-15 10 -12 0 -15 13 -15 58 0 47 4 63 21 78 35 31 53 9 57 -70 3 -61 1 -66
-18 -66 -11 0 -20 -4 -20 -10 0 -5 25 -10 55 -10 30 0 55 5 55 10 0 6 -9 10
-20 10 -18 0 -20 7 -20 68 0 37 -4 72 -8 79 -11 18 -58 26 -81 13 -14 -7 -21
-7 -21 0 0 10 -7 11 -47 3z"/>
<path d="M6799 5971 c-58 -58 -28 -155 53 -168 30 -4 41 -1 62 20 26 26 34 47
17 47 -5 0 -16 -11 -25 -25 -9 -14 -25 -25 -36 -25 -26 0 -60 34 -60 60 0 18
7 20 59 20 33 0 62 4 65 9 9 14 -15 71 -34 81 -34 18 -71 11 -101 -19z m91
-10 c18 -34 11 -41 -35 -41 -49 0 -53 5 -29 38 19 27 50 29 64 3z"/>
<path d="M7122 5984 c-24 -17 -29 -56 -9 -72 7 -6 31 -17 53 -24 31 -11 39
-18 39 -38 0 -20 -6 -26 -28 -28 -22 -3 -31 3 -45 27 -23 41 -32 39 -32 -6 l0
-38 48 -2 c56 -2 92 18 92 51 0 42 -11 55 -61 71 -36 12 -49 21 -47 33 2 12
14 17 38 17 29 0 36 -4 38 -22 5 -35 22 -27 22 10 0 33 -1 34 -43 35 -25 1
-52 -4 -65 -14z"/>
<path d="M7452 5984 c-30 -21 -30 -57 1 -52 16 2 21 9 20 26 -2 17 2 22 22 22
23 0 45 -24 45 -49 0 -6 -12 -11 -27 -11 -16 0 -43 -9 -61 -20 -27 -16 -33
-26 -30 -47 4 -40 47 -61 89 -46 23 9 35 9 49 1 25 -16 50 6 49 41 l-1 26 -10
-29 c-15 -42 -28 -15 -28 61 0 52 -3 64 -22 77 -12 9 -34 16 -48 16 -14 0 -36
-7 -48 -16z m73 -140 c-19 -29 -58 -30 -63 -1 -5 23 23 55 52 59 27 4 33 -25
11 -58z"/>
<path d="M7653 5993 c-26 -5 -31 -23 -8 -23 12 0 15 -14 15 -70 0 -56 -3 -70
-15 -70 -8 0 -15 -4 -15 -10 0 -5 23 -10 50 -10 28 0 50 5 50 10 0 6 -7 10
-15 10 -12 0 -15 13 -15 58 0 47 4 63 21 78 35 31 53 9 57 -70 3 -61 1 -66
-18 -66 -11 0 -20 -4 -20 -10 0 -5 25 -10 55 -10 30 0 55 5 55 10 0 6 -9 10
-20 10 -18 0 -20 7 -20 68 0 37 -4 72 -8 79 -11 18 -58 26 -81 13 -14 -7 -21
-7 -21 0 0 10 -7 11 -47 3z"/>
<path d="M8122 5984 c-30 -21 -30 -57 1 -52 16 2 21 9 20 26 -2 17 2 22 22 22
23 0 45 -24 45 -49 0 -6 -12 -11 -27 -11 -16 0 -43 -9 -61 -20 -27 -16 -33
-26 -30 -47 4 -40 47 -61 89 -46 23 9 35 9 49 1 25 -16 50 6 49 41 l-1 26 -10
-29 c-15 -42 -28 -15 -28 61 0 52 -3 64 -22 77 -12 9 -34 16 -48 16 -14 0 -36
-7 -48 -16z m73 -140 c-19 -29 -58 -30 -63 -1 -5 23 23 55 52 59 27 4 33 -25
11 -58z"/>
<path d="M8439 5971 c-76 -76 3 -201 102 -161 72 30 77 140 8 176 -43 22 -77
17 -110 -15z m100 -4 c35 -43 18 -132 -27 -144 -51 -13 -84 81 -46 135 17 25
56 29 73 9z"/>
<path d="M8643 5993 c-26 -5 -31 -23 -8 -23 12 0 15 -14 15 -70 0 -56 -3 -70
-15 -70 -8 0 -15 -4 -15 -10 0 -5 23 -10 50 -10 28 0 50 5 50 10 0 6 -7 10
-15 10 -12 0 -15 13 -15 58 0 47 4 63 21 78 35 31 53 9 57 -70 3 -61 1 -66
-18 -66 -11 0 -20 -4 -20 -10 0 -5 25 -10 55 -10 30 0 55 5 55 10 0 6 -9 10
-20 10 -18 0 -20 7 -20 68 0 37 -4 72 -8 79 -11 18 -58 26 -81 13 -14 -7 -21
-7 -21 0 0 10 -7 11 -47 3z"/>
<path d="M8863 5993 c-26 -5 -31 -23 -8 -23 12 0 15 -14 15 -65 0 -52 4 -69
20 -85 22 -22 51 -26 81 -10 13 7 19 7 19 0 0 -11 30 -13 54 -4 23 9 20 24 -4
24 -18 0 -20 7 -20 86 0 85 0 86 -22 80 -13 -3 -29 -6 -35 -6 -20 0 -15 -17 7
-23 17 -4 20 -14 20 -54 0 -58 -22 -96 -53 -91 -20 3 -22 10 -25 91 -2 61 -6
87 -15 86 -7 -1 -22 -4 -34 -6z"/>
<path d="M9092 5984 c-24 -17 -29 -56 -9 -72 7 -6 31 -17 53 -24 31 -11 39
-18 39 -38 0 -20 -6 -26 -28 -28 -22 -3 -31 3 -45 27 -23 41 -32 39 -32 -6 l0
-38 48 -2 c56 -2 92 18 92 51 0 42 -11 55 -61 71 -36 12 -49 21 -47 33 2 12
14 17 38 17 29 0 36 -4 38 -22 5 -35 22 -27 22 10 0 33 -1 34 -43 35 -25 1
-52 -4 -65 -14z"/>
</g>
</svg>
